<?xml version="1.0" encoding="UTF-8"?>
<svg xmlns="http://www.w3.org/2000/svg" xmlns:xlink="http://www.w3.org/1999/xlink" width="50pt" height="50pt" viewBox="0 0 50 50" version="1.1">
<g id="surface1120">
<path style=" stroke:none;fill-rule:nonzero;fill:rgb(93.72549%,84.705882%,74.509804%);fill-opacity:1;" d="M 41.40625 7.03125 L 12.5 7.03125 C 11.636719 7.03125 10.9375 7.730469 10.9375 8.59375 L 10.9375 41.40625 L 8.59375 41.40625 C 7.730469 41.40625 7.03125 42.105469 7.03125 42.96875 L 7.03125 44.53125 C 7.03125 45.394531 7.730469 46.09375 8.59375 46.09375 L 41.40625 46.09375 C 42.269531 46.09375 42.96875 45.394531 42.96875 44.53125 L 42.96875 8.59375 C 42.96875 7.730469 42.269531 7.03125 41.40625 7.03125 Z M 41.40625 7.03125 "/>
<path style=" stroke:none;fill-rule:nonzero;fill:rgb(80.392157%,63.137255%,65.490196%);fill-opacity:1;" d="M 9.375 3.90625 L 38.28125 3.90625 C 39.144531 3.90625 39.84375 4.605469 39.84375 5.46875 L 39.84375 39.84375 C 39.84375 40.707031 39.144531 41.40625 38.28125 41.40625 L 9.375 41.40625 C 8.511719 41.40625 7.8125 40.707031 7.8125 39.84375 L 7.8125 5.46875 C 7.8125 4.605469 8.511719 3.90625 9.375 3.90625 Z M 9.375 3.90625 "/>
<path style=" stroke:none;fill-rule:nonzero;fill:rgb(74.901961%,58.039216%,60.784314%);fill-opacity:1;" d="M 9.375 3.90625 L 11.71875 3.90625 L 11.71875 41.40625 L 7.03125 41.40625 L 7.03125 6.25 C 7.03125 4.957031 8.082031 3.90625 9.375 3.90625 Z M 9.375 3.90625 "/>
<path style=" stroke:none;fill-rule:nonzero;fill:rgb(55.294118%,42.352941%,62.352941%);fill-opacity:1;" d="M 25.78125 20.3125 L 28.90625 20.3125 C 29.335938 20.3125 29.6875 19.960938 29.6875 19.53125 C 29.6875 19.101562 29.335938 18.75 28.90625 18.75 L 25.78125 18.75 C 25.351562 18.75 25 19.101562 25 19.53125 C 25 19.960938 25.351562 20.3125 25.78125 20.3125 Z M 25.78125 17.1875 L 33.59375 17.1875 C 34.023438 17.1875 34.375 16.835938 34.375 16.40625 C 34.375 15.976562 34.023438 15.625 33.59375 15.625 L 25.78125 15.625 C 25.351562 15.625 25 15.976562 25 16.40625 C 25 16.835938 25.351562 17.1875 25.78125 17.1875 Z M 25.78125 23.4375 L 31.25 23.4375 C 31.679688 23.4375 32.03125 23.085938 32.03125 22.65625 C 32.03125 22.226562 31.679688 21.875 31.25 21.875 L 25.78125 21.875 C 25.351562 21.875 25 22.226562 25 22.65625 C 25 23.085938 25.351562 23.4375 25.78125 23.4375 Z M 25.78125 23.4375 "/>
<path style="fill:none;stroke-width:2;stroke-linecap:round;stroke-linejoin:round;stroke:rgb(55.294118%,42.352941%,62.352941%);stroke-opacity:1;stroke-miterlimit:10;" d="M 49.015 5 L 12.225 5 C 10.445 5 9 6.445 9 8.225 L 9 56 C 9 54.345 10.345 53 12 53 L 49.015 53 C 50.11 53 51 52.11 51 51.015 L 51 6.985 C 51 5.89 50.11 5 49.015 5 Z M 49.015 5 " transform="matrix(0.78125,0,0,0.78125,0,0)"/>
<path style="fill:none;stroke-width:2.069;stroke-linecap:round;stroke-linejoin:round;stroke:rgb(55.294118%,42.352941%,62.352941%);stroke-opacity:1;stroke-miterlimit:10;" d="M 9 56.115 C 9 57.71 10.29 59 11.885 59 L 53.35 59 C 54.26 59 55 58.26 55 57.35 L 55 10.65 C 55 9.74 54.26 9 53.35 9 L 51.235 9 " transform="matrix(0.78125,0,0,0.78125,0,0)"/>
<path style="fill:none;stroke-width:2;stroke-linecap:round;stroke-linejoin:round;stroke:rgb(55.294118%,42.352941%,62.352941%);stroke-opacity:1;stroke-miterlimit:10;" d="M 9.995 47.01 L 9.995 49.01 " transform="matrix(0.78125,0,0,0.78125,0,0)"/>
<path style="fill:none;stroke-width:2;stroke-linecap:round;stroke-linejoin:round;stroke:rgb(55.294118%,42.352941%,62.352941%);stroke-opacity:1;stroke-miterlimit:10;" d="M 14.99 47.01 L 14.99 49.01 " transform="matrix(0.78125,0,0,0.78125,0,0)"/>
<path style="fill:none;stroke-width:2;stroke-linecap:round;stroke-linejoin:round;stroke:rgb(55.294118%,42.352941%,62.352941%);stroke-opacity:1;stroke-miterlimit:10;" d="M 19.98 47.01 L 19.98 49.01 " transform="matrix(0.78125,0,0,0.78125,0,0)"/>
<path style="fill:none;stroke-width:2;stroke-linecap:round;stroke-linejoin:round;stroke:rgb(55.294118%,42.352941%,62.352941%);stroke-opacity:1;stroke-miterlimit:10;" d="M 24.975 47.01 L 24.975 49.01 " transform="matrix(0.78125,0,0,0.78125,0,0)"/>
<path style="fill:none;stroke-width:2;stroke-linecap:round;stroke-linejoin:round;stroke:rgb(55.294118%,42.352941%,62.352941%);stroke-opacity:1;stroke-miterlimit:10;" d="M 29.97 47.01 L 29.97 49.01 " transform="matrix(0.78125,0,0,0.78125,0,0)"/>
<path style="fill:none;stroke-width:2;stroke-linecap:round;stroke-linejoin:round;stroke:rgb(55.294118%,42.352941%,62.352941%);stroke-opacity:1;stroke-miterlimit:10;" d="M 34.96 47.01 L 34.96 49.01 " transform="matrix(0.78125,0,0,0.78125,0,0)"/>
<path style="fill:none;stroke-width:2;stroke-linecap:round;stroke-linejoin:round;stroke:rgb(55.294118%,42.352941%,62.352941%);stroke-opacity:1;stroke-miterlimit:10;" d="M 39.955 47.01 L 39.955 49.01 " transform="matrix(0.78125,0,0,0.78125,0,0)"/>
<path style="fill:none;stroke-width:2;stroke-linecap:round;stroke-linejoin:round;stroke:rgb(55.294118%,42.352941%,62.352941%);stroke-opacity:1;stroke-miterlimit:10;" d="M 44.95 47.01 L 44.95 49.01 " transform="matrix(0.78125,0,0,0.78125,0,0)"/>
<path style="fill:none;stroke-width:2;stroke-linecap:round;stroke-linejoin:round;stroke:rgb(55.294118%,42.352941%,62.352941%);stroke-opacity:1;stroke-miterlimit:10;" d="M 49.94 47.01 L 49.94 49.01 " transform="matrix(0.78125,0,0,0.78125,0,0)"/>
<path style=" stroke:none;fill-rule:nonzero;fill:rgb(92.941176%,47.058824%,60%);fill-opacity:1;" d="M 21.421875 33.492188 L 17.640625 30.789062 C 17.371094 30.597656 17.003906 30.597656 16.734375 30.789062 L 12.953125 33.492188 C 12.601562 33.742188 12.113281 33.660156 11.863281 33.308594 C 11.769531 33.175781 11.71875 33.019531 11.71875 32.859375 L 11.71875 3.125 C 11.71875 2.695312 12.070312 2.34375 12.5 2.34375 L 21.875 2.34375 C 22.304688 2.34375 22.65625 2.695312 22.65625 3.125 L 22.65625 32.859375 C 22.652344 33.289062 22.304688 33.640625 21.871094 33.636719 C 21.710938 33.636719 21.554688 33.585938 21.421875 33.492188 Z M 21.421875 33.492188 "/>
<path style=" stroke:none;fill-rule:nonzero;fill:rgb(94.901961%,51.372549%,64.705882%);fill-opacity:1;" d="M 11.71875 2.34375 L 22.65625 2.34375 L 22.65625 6.25 L 11.71875 6.25 Z M 11.71875 2.34375 "/>
<path style="fill:none;stroke-width:2;stroke-linecap:butt;stroke-linejoin:miter;stroke:rgb(55.294118%,42.352941%,62.352941%);stroke-opacity:1;stroke-miterlimit:10;" d="M 27.42 42.87 L 22.58 39.41 C 22.235 39.165 21.765 39.165 21.42 39.41 L 16.58 42.87 C 16.13 43.19 15.505 43.085 15.185 42.635 C 15.065 42.465 15 42.265 15 42.06 L 15 4 C 15 3.45 15.45 3 16 3 L 28 3 C 28.55 3 29 3.45 29 4 L 29 42.06 C 28.995 42.61 28.55 43.06 27.995 43.055 C 27.79 43.055 27.59 42.99 27.42 42.87 Z M 27.42 42.87 " transform="matrix(0.78125,0,0,0.78125,0,0)"/>
</g>
</svg>
