<?xml version="1.0" encoding="UTF-8"?>
<svg xmlns="http://www.w3.org/2000/svg" xmlns:xlink="http://www.w3.org/1999/xlink" width="50pt" height="50pt" viewBox="0 0 50 50" version="1.1">
<g id="surface3484">
<path style=" stroke:none;fill-rule:nonzero;fill:rgb(89.803922%,45.098039%,45.098039%);fill-opacity:1;" d="M 44.375 9.480469 L 40.519531 5.625 C 39.894531 5 38.957031 5 38.4375 5.625 L 36.667969 7.394531 L 42.605469 13.332031 L 44.375 11.5625 C 44.894531 10.9375 44.894531 10 44.375 9.480469 "/>
<path style=" stroke:none;fill-rule:nonzero;fill:rgb(100%,59.607843%,0%);fill-opacity:1;" d="M 39.582031 16.25 L 13.125 42.8125 L 7.1875 36.875 L 33.75 10.417969 Z M 39.582031 16.25 "/>
<path style=" stroke:none;fill-rule:nonzero;fill:rgb(69.019608%,74.509804%,77.254902%);fill-opacity:1;" d="M 33.75 10.417969 L 36.667969 7.5 L 42.605469 13.4375 L 39.582031 16.25 Z M 33.75 10.417969 "/>
<path style=" stroke:none;fill-rule:nonzero;fill:rgb(100%,75.686275%,2.745098%);fill-opacity:1;" d="M 7.1875 36.875 L 5.207031 44.792969 L 13.125 42.8125 Z M 7.1875 36.875 "/>
<path style=" stroke:none;fill-rule:nonzero;fill:rgb(21.568627%,27.843137%,30.980392%);fill-opacity:1;" d="M 6.25 40.832031 L 5.207031 44.792969 L 9.167969 43.75 Z M 6.25 40.832031 "/>
</g>
</svg>
